<svg width="200" height="210" viewBox="0 0 200 210" fill="none" xmlns="http://www.w3.org/2000/svg">
<path d="M105.84 204.667L105.96 204.647C106.04 204.66 106.093 204.718 106.12 204.821L106.29 208.931L106.25 209.095L106.13 209.249L105.09 209.961L104.97 210L104.82 209.961L103.78 209.249L103.68 209.124L103.63 208.931L103.8 204.811L103.84 204.715C103.893 204.651 103.973 204.631 104.08 204.657L104.79 205.004L104.93 205.042L105.13 205.004L105.84 204.667Z" fill="#3C8F33"/>
<path d="M108.46 203.579L108.6 203.56C108.7 203.579 108.766 203.649 108.8 203.771L109.14 209.682L109.1 209.817C109.033 209.9 108.936 209.926 108.81 209.894L106.8 209.008L106.72 208.931L106.67 208.816L106.49 204.676L106.52 204.57L106.62 204.474L108.46 203.579Z" fill="#3C8F33"/>
<path d="M101.303 203.555C101.353 203.545 101.406 203.553 101.45 203.579L103.29 204.464L103.39 204.561L103.42 204.676L103.24 208.816L103.21 208.922L103.11 208.999L101.1 209.894L100.95 209.913C100.843 209.875 100.787 209.798 100.78 209.682L101.12 203.771L101.18 203.637C101.209 203.595 101.253 203.566 101.303 203.555Z" fill="#3C8F33"/>
<path fill-rule="evenodd" clip-rule="evenodd" d="M100.02 0C104.416 0.00748731 108.687 1.40917 112.172 3.98826C115.658 6.56735 118.163 10.1802 119.301 14.2679C120.44 18.3557 120.147 22.6907 118.47 26.6024C116.792 30.5141 113.822 33.7847 110.02 35.9082V38.5075H140.018C150.626 38.5075 160.8 42.5645 168.301 49.7861C175.802 57.0076 180.016 66.8022 180.016 77.015V77.4963C185.659 78.6106 190.729 81.566 194.37 85.8634C198.011 90.1607 200 95.5364 200 101.082C200 106.628 198.011 112.004 194.37 116.301C190.729 120.598 185.659 123.554 180.016 124.668V134.776C180.016 144.989 175.802 154.784 168.301 162.005C160.8 169.227 150.626 173.284 140.018 173.284H60.022C49.4139 173.284 39.2403 169.227 31.7392 162.005C24.2381 154.784 20.0241 144.989 20.0241 134.776V124.668C14.3729 123.563 9.29222 120.612 5.64289 116.313C1.99356 112.015 0 106.634 0 101.082C0 95.5306 1.99356 90.1497 5.64289 85.8512C9.29222 81.5527 14.3729 78.6011 20.0241 77.4963V77.015C20.0241 66.8022 24.2381 57.0076 31.7392 49.7861C39.2403 42.5645 49.4139 38.5075 60.022 38.5075H90.0205V35.9082C86.218 33.7847 83.2482 30.5141 81.5704 26.6024C79.8926 22.6907 79.6002 18.3557 80.7386 14.2679C81.8769 10.1802 84.3825 6.56735 87.8678 3.98826C91.3532 1.40917 95.6241 0.00748731 100.02 0ZM70.0215 86.6418C67.3695 86.6418 64.8261 87.6561 62.9508 89.4615C61.0755 91.2669 60.022 93.7155 60.022 96.2687V115.522C60.022 118.076 61.0755 120.524 62.9508 122.33C64.8261 124.135 67.3695 125.149 70.0215 125.149C72.6736 125.149 75.217 124.135 77.0922 122.33C78.9675 120.524 80.021 118.076 80.021 115.522V96.2687C80.021 93.7155 78.9675 91.2669 77.0922 89.4615C75.217 87.6561 72.6736 86.6418 70.0215 86.6418ZM130.018 86.6418C127.366 86.6418 124.823 87.6561 122.948 89.4615C121.073 91.2669 120.019 93.7155 120.019 96.2687V115.522C120.019 118.076 121.073 120.524 122.948 122.33C124.823 124.135 127.366 125.149 130.018 125.149C132.671 125.149 135.214 124.135 137.089 122.33C138.964 120.524 140.018 118.076 140.018 115.522V96.2687C140.018 93.7155 138.964 91.2669 137.089 89.4615C135.214 87.6561 132.671 86.6418 130.018 86.6418Z" fill="#3C8F33"/>
</svg>
